<svg width="46" height="40" viewBox="0 0 46 40" fill="none" xmlns="http://www.w3.org/2000/svg">
<path d="M18.2851 0.135857C17.4335 0.31834 17.1674 0.417183 16.3995 0.812565C15.6391 1.19274 14.7343 1.99111 14.2553 2.69063C13.9968 3.0632 13.9359 3.10882 13.6926 3.10882C12.803 3.11643 11.5256 3.62586 10.6664 4.32538C9.44225 5.31384 8.66669 6.99421 8.66669 8.64417V9.24485L7.97477 9.69345C7.14599 10.2333 6.14993 11.237 5.69372 12.0049C4.97139 13.2291 4.67485 14.4 4.72807 15.8751C4.75849 16.6354 4.80411 16.9244 4.94097 17.2817C5.41999 18.5211 6.7354 19.0229 7.95196 18.4299C8.18007 18.3158 8.59826 18.0117 8.8948 17.738C9.48787 17.1905 9.71598 17.0993 9.99731 17.2817C10.3547 17.5175 10.2634 17.7684 9.59432 18.4071C8.8872 19.0762 8.469 19.3727 7.73146 19.7225C6.97871 20.0874 6.62895 20.1331 4.81931 20.1407L3.24539 20.1559L3.0553 19.9126C2.69033 19.4487 1.99841 19.2282 1.36732 19.3803C-0.183799 19.7529 -0.503146 21.8058 0.865486 22.6118C1.46616 22.9616 2.24172 22.9387 2.81959 22.551C3.0477 22.3989 3.36704 22.0111 3.43547 21.8058C3.45068 21.7602 3.73201 21.7602 4.19583 21.7906L4.94097 21.8514L4.97139 22.992C5.0094 24.5431 5.29073 25.714 5.88381 26.8013C6.18034 27.3412 6.16514 27.364 5.55686 27.364C5.2223 27.364 5.17668 27.3412 5.0094 27.0827C4.43914 26.2083 2.87281 26.2463 2.21131 27.1511C1.40534 28.246 2.08205 29.8123 3.44308 29.9948C4.12739 30.0936 4.87254 29.7211 5.17668 29.1432L5.35916 28.8087H7.18401C10.1266 28.8087 10.4383 28.6566 11.1683 26.9154C11.6169 25.8661 12.0122 25.5391 12.3924 25.9193C12.5749 26.1018 12.5901 26.3527 12.4304 26.5808C12.3696 26.6721 12.1643 27.1131 11.9742 27.5617C11.5712 28.5121 11.3279 28.8543 10.2102 30.0328C9.7616 30.5118 9.13811 31.1809 8.83397 31.5231L8.27891 32.139L7.73146 32.101C7.26765 32.0629 7.11558 32.0858 6.78102 32.2302C6.0891 32.5268 5.70132 33.1122 5.70132 33.865C5.70132 34.9143 6.41605 35.6062 7.49575 35.6138C7.95957 35.6138 8.08122 35.5834 8.40057 35.3857C8.96323 35.0359 9.21415 34.6253 9.26737 33.979C9.31299 33.4468 9.31299 33.4392 9.83764 32.8385C10.1342 32.504 10.3927 32.2302 10.4307 32.2302C10.4611 32.2302 10.4915 32.3443 10.4915 32.4887C10.4915 32.8841 10.8489 34.0247 11.1606 34.6253C11.4952 35.2716 12.3924 36.1993 12.9931 36.5186C13.2212 36.6403 13.6394 36.8151 13.9283 36.9064C14.3693 37.0432 14.4758 37.1193 14.6811 37.4082C15.0689 37.9481 15.7456 38.6096 16.217 38.8909C17.8289 39.8793 20.0872 40.0314 21.5242 39.2483C22.0413 38.9669 22.7788 38.161 23.0525 37.5831C23.4403 36.7543 23.4935 36.1688 23.4935 32.9678L23.4859 30.086L22.5507 27.037C21.0756 22.2544 20.3609 19.905 20.2697 19.54L20.1784 19.1978L19.7374 20.3384C19.0303 22.148 18.8478 22.5586 18.7033 22.6878C18.5817 22.8019 18.2167 22.8095 15.3806 22.8095L12.2023 22.8019L12.0351 22.6042C11.8069 22.3533 11.8145 22.1024 12.0427 21.8362L12.2251 21.6233H15.0384H17.8593L18.7946 19.2434C19.3116 17.9356 19.7906 16.7951 19.8667 16.7115C20.0492 16.5214 20.475 16.5214 20.6574 16.7115C20.7335 16.7951 21.0832 17.7836 21.4254 18.9013C21.7676 20.019 22.5279 22.4749 23.1058 24.3454L24.1551 27.7518L24.406 27.0446C24.5428 26.6569 25.4248 24.315 26.3601 21.8514C28.2077 16.9776 28.2229 16.9472 28.778 16.9472C29.295 16.9472 29.3863 17.1145 29.9261 19.0382C30.1922 20.0038 30.5192 21.1519 30.6485 21.6005L30.8842 22.4141L31.0971 22.2012C31.6597 21.6386 32.1159 21.5777 35.279 21.6005L37.8794 21.6233L38.0619 21.8362C38.2824 22.0948 38.2976 22.3381 38.0923 22.5966L37.9402 22.7943L35.1802 22.8171C32.4733 22.8399 32.4201 22.8399 32.0627 23.0148C31.8498 23.1212 31.6141 23.3265 31.4696 23.5242C31.1199 24.0108 30.7321 24.1629 30.3139 23.988C30.1618 23.9272 29.987 23.7979 29.9261 23.6991C29.8273 23.547 28.8312 19.981 28.7248 19.4183C28.7096 19.3347 28.451 19.9278 28.1393 20.7489C27.8276 21.5625 27.2041 23.2049 26.7479 24.3986C26.2916 25.5924 25.6986 27.2119 25.4248 28.0103L24.9306 29.4549L24.9382 32.6864C24.9458 36.2601 24.9762 36.5946 25.4096 37.4766C25.7214 38.1153 26.4741 38.8757 27.1432 39.2026C28.74 40.0086 31.5153 40.0238 33.9484 39.2559C35.2106 38.8605 36.9442 37.8872 37.811 37.0965C39.1796 35.8419 40.2441 33.6901 40.419 31.8044L40.4646 31.2722L40.9208 31.0213C41.4759 30.7171 42.4035 29.8503 42.8521 29.2192C43.2931 28.6034 43.7569 27.6149 43.9546 26.8698C44.1675 26.0714 44.2359 24.3302 44.0763 23.4558L43.9698 22.8475L44.2207 22.3153C44.8518 20.9314 45.0495 19.981 45.0495 18.2398C45.0495 16.7951 44.9583 16.1944 44.5629 15.0235C44.1371 13.7841 43.582 12.8641 42.6468 11.8909L42.0537 11.275L41.9777 10.6515C41.6736 8.25639 40.3886 6.35552 38.3052 5.24541C37.773 4.95647 36.6248 4.55349 36.3587 4.55349C36.2751 4.55349 36.0546 4.28736 35.7732 3.85397C34.1613 1.38283 31.2339 -0.115059 28.2457 0.0141983C27.052 0.0674248 26.4589 0.249908 25.9343 0.721325C25.4933 1.11671 25.1359 1.78581 25.0143 2.42451C24.961 2.69823 24.9382 5.96774 24.9382 11.9593C24.9458 17.4186 24.923 21.0987 24.8774 21.1443C24.8394 21.1823 24.5428 21.2052 24.2083 21.1899L23.6076 21.1671L23.5164 20.901C23.4479 20.7033 23.4251 18.4451 23.4175 11.8528C23.4175 4.61432 23.3947 2.97956 23.3111 2.56897C23.0297 1.24596 22.1249 0.287926 20.954 0.0750275C20.2849 -0.0466309 18.9847 -0.0162163 18.2851 0.135857ZM17.7453 6.67487C18.0342 6.979 17.9734 7.1767 17.4868 7.54166C16.7188 8.11953 16.3691 8.87988 16.4451 9.80751C16.5287 10.8264 17.1142 11.5183 18.1483 11.8224C18.3612 11.8833 18.5817 11.9821 18.6273 12.0429C18.7642 12.2102 18.7414 12.522 18.5817 12.6968C18.1255 13.1987 16.3386 12.2634 15.8216 11.2598C15.1373 9.91396 15.3882 8.18036 16.4299 7.14628C16.7872 6.78131 17.2587 6.45436 17.4107 6.45436C17.4792 6.45436 17.6312 6.55321 17.7453 6.67487ZM36.085 7.4048C36.2751 7.59489 36.2751 7.59489 36.2675 9.01674L36.2523 10.4462L37.7425 10.4158C38.845 10.4006 39.2632 10.4158 39.3469 10.4842C39.5218 10.6287 39.5142 13.6169 39.3393 13.7613C39.2404 13.8374 38.8831 13.8602 37.7197 13.8374L36.2294 13.8146V15.2972C36.2294 16.4378 36.2066 16.8027 36.123 16.894C35.9709 17.0841 33.2261 17.0841 33.0436 16.9016C32.9371 16.8027 32.9219 16.5442 32.9219 15.282V13.7765L32.5645 13.7993C32.3592 13.8146 31.6901 13.8374 31.0667 13.8602C29.5459 13.8982 29.6524 14.0274 29.6524 12.1342C29.6524 10.7732 29.66 10.6515 29.7969 10.5222C29.9337 10.4082 30.101 10.393 31.4316 10.4158L32.9219 10.4462V8.94831C32.9219 7.48844 32.9295 7.45042 33.0892 7.33637C33.2261 7.23752 33.5074 7.21471 34.5795 7.21471C35.8797 7.21471 35.8949 7.21471 36.085 7.4048ZM12.1263 13.001C12.362 13.1911 12.3544 13.3431 12.0883 14.1035C11.9438 14.4989 11.9362 14.6129 12.0046 14.879C12.0579 15.0539 12.1871 15.2972 12.2936 15.4341C12.5141 15.6926 13.1604 16.0348 13.4265 16.0348C13.8599 16.0348 13.9968 16.8103 13.6014 17.0004C13.1528 17.2209 11.8374 16.567 11.3735 15.8979C11.1302 15.5405 10.9477 14.9855 10.9477 14.5825C10.9477 14.1339 11.2367 13.2975 11.48 13.0542C11.7385 12.7957 11.8526 12.7881 12.1263 13.001ZM39.2328 27.4552C38.9895 28.8999 37.8566 30.1545 36.4575 30.5194C35.9025 30.6639 34.9901 30.6639 34.473 30.527C33.6823 30.3141 32.5493 29.6983 33.2337 29.8579C33.3781 29.8883 33.9712 29.9112 34.5567 29.9112C35.3854 29.9112 35.7124 29.8807 36.0394 29.7667C37.6437 29.2344 38.7158 28.0407 39.2024 26.2615C39.3089 25.8737 39.3317 26.8546 39.2328 27.4552ZM17.9734 28.4361C18.2091 28.6186 18.2395 28.9531 18.0418 29.128C17.9658 29.1964 17.7073 29.3409 17.464 29.4626C16.582 29.8883 16.1257 30.5422 16.0573 31.4775C16.0117 32.1238 16.179 32.7092 16.5363 33.1198C16.8025 33.4316 17.2815 33.7585 17.6388 33.865C18.1255 34.0094 18.2243 34.3592 17.8746 34.6938C17.654 34.9067 17.6464 34.9067 17.2739 34.8002C16.8177 34.6633 16.1333 34.2223 15.8064 33.8422C15.3958 33.3708 15.1221 32.694 15.0765 32.0021C14.97 30.4434 15.6239 29.2573 16.9773 28.5805C17.3119 28.4133 17.6236 28.2764 17.6769 28.2764C17.7301 28.2764 17.8593 28.3448 17.9734 28.4361Z" fill="#3FA9F5"/>
</svg>
