<svg width="50" height="50" viewBox="0 0 50 50" fill="none" xmlns="http://www.w3.org/2000/svg">
<mask id="path-1-outside-1_4259_255" maskUnits="userSpaceOnUse" x="2" y="5" width="46" height="40" fill="black">
<rect fill="white" x="2" y="5" width="46" height="40"/>
<path d="M21.6415 7.12286C20.8664 7.28784 20.6242 7.3772 19.9253 7.73465C19.2333 8.07836 18.4098 8.80014 17.9739 9.43256C17.7386 9.76939 17.6832 9.81064 17.4618 9.81064C16.6521 9.81751 15.4896 10.2781 14.7076 10.9105C13.5935 11.8041 12.8876 13.3233 12.8876 14.815V15.3581L12.2579 15.7636C11.5036 16.2517 10.5971 17.1591 10.1819 17.8534C9.52451 18.9601 9.25462 20.0187 9.30306 21.3523C9.33074 22.0397 9.37226 22.3009 9.49683 22.624C9.93279 23.7445 11.13 24.1982 12.2372 23.662C12.4448 23.5589 12.8254 23.2839 13.0952 23.0364C13.635 22.5415 13.8426 22.459 14.0986 22.624C14.4239 22.8371 14.3408 23.0639 13.7319 23.6414C13.0883 24.2463 12.7077 24.5144 12.0365 24.8306C11.3514 25.1605 11.0331 25.2018 9.3861 25.2087L7.95366 25.2224L7.78066 25.0024C7.4485 24.5831 6.81877 24.3838 6.24441 24.5213C4.83272 24.8581 4.54208 26.7141 5.78769 27.4428C6.33437 27.759 7.04021 27.7383 7.56614 27.3878C7.77374 27.2503 8.06438 26.8997 8.12666 26.7141C8.1405 26.6729 8.39654 26.6729 8.81866 26.7004L9.49683 26.7553L9.52451 27.7865C9.55911 29.1888 9.81515 30.2474 10.3549 31.2304C10.6248 31.7185 10.611 31.7391 10.0573 31.7391C9.75287 31.7391 9.71135 31.7185 9.55911 31.4847C9.0401 30.6942 7.61458 30.7286 7.01253 31.5466C6.27901 32.5365 6.89489 33.9525 8.13358 34.1175C8.75638 34.2069 9.43455 33.8701 9.71135 33.3476L9.87743 33.0452H11.5382C14.2163 33.0452 14.5 32.9077 15.1643 31.3335C15.5726 30.3849 15.9325 30.0893 16.2785 30.433C16.4445 30.598 16.4584 30.8248 16.3131 31.031C16.2577 31.1135 16.0709 31.5122 15.8979 31.9178C15.5311 32.7771 15.3097 33.0864 14.2924 34.1519C13.8841 34.585 13.3167 35.1899 13.0399 35.4992L12.5347 36.056L12.0365 36.0217C11.6144 35.9873 11.476 36.0079 11.1715 36.1385C10.5418 36.4066 10.1888 36.9359 10.1888 37.6165C10.1888 38.5651 10.8393 39.1906 11.822 39.1975C12.2441 39.1975 12.3548 39.17 12.6454 38.9913C13.1575 38.6751 13.3859 38.3039 13.4343 37.7196C13.4758 37.2384 13.4758 37.2315 13.9533 36.6884C14.2232 36.386 14.4585 36.1385 14.4931 36.1385C14.5208 36.1385 14.5484 36.2416 14.5484 36.3722C14.5484 36.7297 14.8737 37.7608 15.1574 38.3039C15.4619 38.8882 16.2785 39.7268 16.8251 40.0155C17.0327 40.1255 17.4133 40.2836 17.6763 40.3661C18.0777 40.4898 18.1745 40.5586 18.3614 40.8198C18.7143 41.3079 19.3302 41.9059 19.7592 42.1602C21.2263 43.0539 23.2815 43.1914 24.5894 42.4833C25.06 42.229 25.7312 41.5003 25.9803 40.9779C26.3333 40.2286 26.3817 39.6993 26.3817 36.8053L26.3748 34.2L25.5236 31.4435C24.1811 27.1197 23.5307 24.9956 23.4476 24.6656L23.3646 24.3563L22.9632 25.3874C22.3196 27.0234 22.1536 27.3946 22.0221 27.5115C21.9114 27.6146 21.5792 27.6215 18.998 27.6215L16.1055 27.6146L15.9532 27.4359C15.7456 27.209 15.7525 26.9822 15.9601 26.7416L16.1262 26.5491H18.6866H21.254L22.1051 24.3975C22.5757 23.2152 23.0117 22.1841 23.0809 22.1084C23.2469 21.9366 23.6345 21.9366 23.8005 22.1084C23.8697 22.1841 24.1881 23.0777 24.4995 24.0882C24.8109 25.0987 25.5029 27.319 26.0288 29.0101L26.9837 32.0897L27.2121 31.4504C27.3367 31.0998 28.1394 28.9826 28.9906 26.7553C30.6721 22.349 30.686 22.3215 31.1911 22.3215C31.6617 22.3215 31.7447 22.4728 32.2361 24.2119C32.4783 25.0849 32.7758 26.1229 32.8935 26.5285L33.108 27.264L33.3017 27.0716C33.8138 26.5629 34.229 26.5079 37.1078 26.5285L39.4744 26.5491L39.6405 26.7416C39.8412 26.9753 39.855 27.1953 39.6682 27.429L39.5298 27.6077L37.0178 27.6284C34.5543 27.649 34.5058 27.649 34.1806 27.8071C33.9868 27.9033 33.7723 28.0889 33.6408 28.2677C33.3225 28.7076 32.9696 28.8451 32.589 28.687C32.4506 28.632 32.2914 28.5151 32.2361 28.4258C32.1461 28.2883 31.2396 25.0643 31.1427 24.5556C31.1288 24.48 30.8936 25.0162 30.6098 25.7586C30.3261 26.4941 29.7587 27.9789 29.3435 29.0582C28.9283 30.1374 28.3885 31.6016 28.1394 32.3234L27.6896 33.6295L27.6965 36.551C27.7034 39.7818 27.7311 40.0843 28.1256 40.8817C28.4093 41.4591 29.0944 42.1465 29.7033 42.4421C31.1565 43.1707 33.6823 43.1845 35.8968 42.4902C37.0455 42.1327 38.6232 41.2529 39.4121 40.538C40.6577 39.4037 41.6265 37.4583 41.7857 35.7536L41.8272 35.2724L42.2424 35.0455C42.7476 34.7706 43.5918 33.9869 44.0001 33.4164C44.4015 32.8596 44.8236 31.9659 45.0035 31.2923C45.1973 30.5705 45.2596 28.9963 45.1142 28.2058L45.0174 27.6559L45.2457 27.1747C45.8201 25.9236 46 25.0643 46 23.4901C46 22.1841 45.917 21.641 45.5571 20.5824C45.1696 19.4619 44.6644 18.6301 43.8133 17.7502L43.2735 17.1934L43.2043 16.6298C42.9275 14.4644 41.758 12.7459 39.8619 11.7423C39.3775 11.481 38.3326 11.1167 38.0904 11.1167C38.0143 11.1167 37.8136 10.8761 37.5576 10.4843C36.0905 8.25021 33.4263 6.89601 30.7067 7.01287C29.6203 7.06099 29.0805 7.22597 28.603 7.65216C28.2017 8.00962 27.8764 8.61454 27.7657 9.19197C27.7173 9.43944 27.6965 12.3953 27.6965 17.8121C27.7034 22.7477 27.6827 26.0748 27.6412 26.1161C27.6066 26.1504 27.3367 26.171 27.0322 26.1573L26.4855 26.1367L26.4025 25.8961C26.3402 25.7174 26.3194 23.6757 26.3125 17.7159C26.3125 11.1717 26.2917 9.69378 26.2156 9.32258C25.9596 8.12648 25.1361 7.26034 24.0704 7.06786C23.4615 6.95788 22.2781 6.98538 21.6415 7.12286ZM21.1502 13.0346C21.4131 13.3096 21.3578 13.4883 20.9149 13.8183C20.216 14.3407 19.8976 15.0281 19.9668 15.8667C20.043 16.7879 20.5758 17.4134 21.5169 17.6884C21.7107 17.7434 21.9114 17.8327 21.9529 17.8877C22.0774 18.039 22.0567 18.3208 21.9114 18.4789C21.4962 18.9326 19.87 18.0871 19.3994 17.1797C18.7766 15.963 19.005 14.3957 19.953 13.4608C20.2782 13.1308 20.7073 12.8353 20.8457 12.8353C20.908 12.8353 21.0464 12.9246 21.1502 13.0346ZM37.8413 13.6945C38.0143 13.8664 38.0143 13.8664 38.0074 15.1518L37.9935 16.4442L39.3498 16.4167C40.3533 16.4029 40.7339 16.4167 40.81 16.4785C40.9691 16.6091 40.9622 19.3107 40.8031 19.4413C40.7131 19.51 40.3879 19.5306 39.3291 19.51L37.9728 19.4894V20.8299C37.9728 21.861 37.952 22.1909 37.8759 22.2734C37.7375 22.4453 35.2393 22.4453 35.0733 22.2803C34.9764 22.1909 34.9625 21.9572 34.9625 20.8161V19.455L34.6373 19.4757C34.4505 19.4894 33.8415 19.51 33.2741 19.5306C31.8901 19.565 31.9869 19.6819 31.9869 17.9702C31.9869 16.7398 31.9939 16.6298 32.1184 16.5129C32.243 16.4098 32.3952 16.396 33.6062 16.4167L34.9625 16.4442V15.09C34.9625 13.7701 34.9695 13.7358 35.1148 13.6326C35.2393 13.5433 35.4954 13.5227 36.4711 13.5227C37.6544 13.5227 37.6683 13.5227 37.8413 13.6945ZM16.0363 18.7539C16.2508 18.9257 16.2439 19.0632 16.0017 19.7506C15.8702 20.1081 15.8633 20.2112 15.9255 20.4518C15.974 20.6099 16.0916 20.8299 16.1885 20.9536C16.3892 21.1873 16.9774 21.4966 17.2196 21.4966C17.614 21.4966 17.7386 22.1978 17.3787 22.3697C16.9705 22.569 15.7733 21.9778 15.3512 21.3729C15.1297 21.0498 14.9637 20.548 14.9637 20.1837C14.9637 19.7781 15.2266 19.022 15.4481 18.802C15.6833 18.5683 15.7871 18.5614 16.0363 18.7539ZM40.7062 31.8216C40.4847 33.1277 39.4536 34.2619 38.1804 34.5918C37.6752 34.7224 36.8448 34.7224 36.3742 34.5987C35.6546 34.4062 34.6235 33.8494 35.2463 33.9938C35.3777 34.0213 35.9175 34.0419 36.4504 34.0419C37.2046 34.0419 37.5022 34.0144 37.7998 33.9113C39.2599 33.4301 40.2356 32.3509 40.6785 30.7423C40.7754 30.3918 40.7961 31.2785 40.7062 31.8216ZM21.3578 32.7083C21.5723 32.8733 21.6 33.1758 21.42 33.3339C21.3508 33.3957 21.1156 33.5264 20.8941 33.6363C20.0914 34.0213 19.6762 34.6125 19.6139 35.458C19.5724 36.0423 19.7246 36.5716 20.0499 36.9428C20.2921 37.2246 20.728 37.5202 21.0533 37.6165C21.4962 37.7471 21.5861 38.0633 21.2678 38.3657C21.0671 38.5582 21.0602 38.5582 20.7211 38.462C20.3059 38.3382 19.6831 37.9395 19.3856 37.5958C19.0119 37.1696 18.7627 36.5578 18.7212 35.9323C18.6243 34.5231 19.2195 33.4507 20.4512 32.8389C20.7557 32.6877 21.0394 32.564 21.0879 32.564C21.1363 32.564 21.254 32.6258 21.3578 32.7083Z"/>
</mask>
<path d="M21.6415 7.12286C20.8664 7.28784 20.6242 7.3772 19.9253 7.73465C19.2333 8.07836 18.4098 8.80014 17.9739 9.43256C17.7386 9.76939 17.6832 9.81064 17.4618 9.81064C16.6521 9.81751 15.4896 10.2781 14.7076 10.9105C13.5935 11.8041 12.8876 13.3233 12.8876 14.815V15.3581L12.2579 15.7636C11.5036 16.2517 10.5971 17.1591 10.1819 17.8534C9.52451 18.9601 9.25462 20.0187 9.30306 21.3523C9.33074 22.0397 9.37226 22.3009 9.49683 22.624C9.93279 23.7445 11.13 24.1982 12.2372 23.662C12.4448 23.5589 12.8254 23.2839 13.0952 23.0364C13.635 22.5415 13.8426 22.459 14.0986 22.624C14.4239 22.8371 14.3408 23.0639 13.7319 23.6414C13.0883 24.2463 12.7077 24.5144 12.0365 24.8306C11.3514 25.1605 11.0331 25.2018 9.3861 25.2087L7.95366 25.2224L7.78066 25.0024C7.4485 24.5831 6.81877 24.3838 6.24441 24.5213C4.83272 24.8581 4.54208 26.7141 5.78769 27.4428C6.33437 27.759 7.04021 27.7383 7.56614 27.3878C7.77374 27.2503 8.06438 26.8997 8.12666 26.7141C8.1405 26.6729 8.39654 26.6729 8.81866 26.7004L9.49683 26.7553L9.52451 27.7865C9.55911 29.1888 9.81515 30.2474 10.3549 31.2304C10.6248 31.7185 10.611 31.7391 10.0573 31.7391C9.75287 31.7391 9.71135 31.7185 9.55911 31.4847C9.0401 30.6942 7.61458 30.7286 7.01253 31.5466C6.27901 32.5365 6.89489 33.9525 8.13358 34.1175C8.75638 34.2069 9.43455 33.8701 9.71135 33.3476L9.87743 33.0452H11.5382C14.2163 33.0452 14.5 32.9077 15.1643 31.3335C15.5726 30.3849 15.9325 30.0893 16.2785 30.433C16.4445 30.598 16.4584 30.8248 16.3131 31.031C16.2577 31.1135 16.0709 31.5122 15.8979 31.9178C15.5311 32.7771 15.3097 33.0864 14.2924 34.1519C13.8841 34.585 13.3167 35.1899 13.0399 35.4992L12.5347 36.056L12.0365 36.0217C11.6144 35.9873 11.476 36.0079 11.1715 36.1385C10.5418 36.4066 10.1888 36.9359 10.1888 37.6165C10.1888 38.5651 10.8393 39.1906 11.822 39.1975C12.2441 39.1975 12.3548 39.17 12.6454 38.9913C13.1575 38.6751 13.3859 38.3039 13.4343 37.7196C13.4758 37.2384 13.4758 37.2315 13.9533 36.6884C14.2232 36.386 14.4585 36.1385 14.4931 36.1385C14.5208 36.1385 14.5484 36.2416 14.5484 36.3722C14.5484 36.7297 14.8737 37.7608 15.1574 38.3039C15.4619 38.8882 16.2785 39.7268 16.8251 40.0155C17.0327 40.1255 17.4133 40.2836 17.6763 40.3661C18.0777 40.4898 18.1745 40.5586 18.3614 40.8198C18.7143 41.3079 19.3302 41.9059 19.7592 42.1602C21.2263 43.0539 23.2815 43.1914 24.5894 42.4833C25.06 42.229 25.7312 41.5003 25.9803 40.9779C26.3333 40.2286 26.3817 39.6993 26.3817 36.8053L26.3748 34.2L25.5236 31.4435C24.1811 27.1197 23.5307 24.9956 23.4476 24.6656L23.3646 24.3563L22.9632 25.3874C22.3196 27.0234 22.1536 27.3946 22.0221 27.5115C21.9114 27.6146 21.5792 27.6215 18.998 27.6215L16.1055 27.6146L15.9532 27.4359C15.7456 27.209 15.7525 26.9822 15.9601 26.7416L16.1262 26.5491H18.6866H21.254L22.1051 24.3975C22.5757 23.2152 23.0117 22.1841 23.0809 22.1084C23.2469 21.9366 23.6345 21.9366 23.8005 22.1084C23.8697 22.1841 24.1881 23.0777 24.4995 24.0882C24.8109 25.0987 25.5029 27.319 26.0288 29.0101L26.9837 32.0897L27.2121 31.4504C27.3367 31.0998 28.1394 28.9826 28.9906 26.7553C30.6721 22.349 30.686 22.3215 31.1911 22.3215C31.6617 22.3215 31.7447 22.4728 32.2361 24.2119C32.4783 25.0849 32.7758 26.1229 32.8935 26.5285L33.108 27.264L33.3017 27.0716C33.8138 26.5629 34.229 26.5079 37.1078 26.5285L39.4744 26.5491L39.6405 26.7416C39.8412 26.9753 39.855 27.1953 39.6682 27.429L39.5298 27.6077L37.0178 27.6284C34.5543 27.649 34.5058 27.649 34.1806 27.8071C33.9868 27.9033 33.7723 28.0889 33.6408 28.2677C33.3225 28.7076 32.9696 28.8451 32.589 28.687C32.4506 28.632 32.2914 28.5151 32.2361 28.4258C32.1461 28.2883 31.2396 25.0643 31.1427 24.5556C31.1288 24.48 30.8936 25.0162 30.6098 25.7586C30.3261 26.4941 29.7587 27.9789 29.3435 29.0582C28.9283 30.1374 28.3885 31.6016 28.1394 32.3234L27.6896 33.6295L27.6965 36.551C27.7034 39.7818 27.7311 40.0843 28.1256 40.8817C28.4093 41.4591 29.0944 42.1465 29.7033 42.4421C31.1565 43.1707 33.6823 43.1845 35.8968 42.4902C37.0455 42.1327 38.6232 41.2529 39.4121 40.538C40.6577 39.4037 41.6265 37.4583 41.7857 35.7536L41.8272 35.2724L42.2424 35.0455C42.7476 34.7706 43.5918 33.9869 44.0001 33.4164C44.4015 32.8596 44.8236 31.9659 45.0035 31.2923C45.1973 30.5705 45.2596 28.9963 45.1142 28.2058L45.0174 27.6559L45.2457 27.1747C45.8201 25.9236 46 25.0643 46 23.4901C46 22.1841 45.917 21.641 45.5571 20.5824C45.1696 19.4619 44.6644 18.6301 43.8133 17.7502L43.2735 17.1934L43.2043 16.6298C42.9275 14.4644 41.758 12.7459 39.8619 11.7423C39.3775 11.481 38.3326 11.1167 38.0904 11.1167C38.0143 11.1167 37.8136 10.8761 37.5576 10.4843C36.0905 8.25021 33.4263 6.89601 30.7067 7.01287C29.6203 7.06099 29.0805 7.22597 28.603 7.65216C28.2017 8.00962 27.8764 8.61454 27.7657 9.19197C27.7173 9.43944 27.6965 12.3953 27.6965 17.8121C27.7034 22.7477 27.6827 26.0748 27.6412 26.1161C27.6066 26.1504 27.3367 26.171 27.0322 26.1573L26.4855 26.1367L26.4025 25.8961C26.3402 25.7174 26.3194 23.6757 26.3125 17.7159C26.3125 11.1717 26.2917 9.69378 26.2156 9.32258C25.9596 8.12648 25.1361 7.26034 24.0704 7.06786C23.4615 6.95788 22.2781 6.98538 21.6415 7.12286ZM21.1502 13.0346C21.4131 13.3096 21.3578 13.4883 20.9149 13.8183C20.216 14.3407 19.8976 15.0281 19.9668 15.8667C20.043 16.7879 20.5758 17.4134 21.5169 17.6884C21.7107 17.7434 21.9114 17.8327 21.9529 17.8877C22.0774 18.039 22.0567 18.3208 21.9114 18.4789C21.4962 18.9326 19.87 18.0871 19.3994 17.1797C18.7766 15.963 19.005 14.3957 19.953 13.4608C20.2782 13.1308 20.7073 12.8353 20.8457 12.8353C20.908 12.8353 21.0464 12.9246 21.1502 13.0346ZM37.8413 13.6945C38.0143 13.8664 38.0143 13.8664 38.0074 15.1518L37.9935 16.4442L39.3498 16.4167C40.3533 16.4029 40.7339 16.4167 40.81 16.4785C40.9691 16.6091 40.9622 19.3107 40.8031 19.4413C40.7131 19.51 40.3879 19.5306 39.3291 19.51L37.9728 19.4894V20.8299C37.9728 21.861 37.952 22.1909 37.8759 22.2734C37.7375 22.4453 35.2393 22.4453 35.0733 22.2803C34.9764 22.1909 34.9625 21.9572 34.9625 20.8161V19.455L34.6373 19.4757C34.4505 19.4894 33.8415 19.51 33.2741 19.5306C31.8901 19.565 31.9869 19.6819 31.9869 17.9702C31.9869 16.7398 31.9939 16.6298 32.1184 16.5129C32.243 16.4098 32.3952 16.396 33.6062 16.4167L34.9625 16.4442V15.09C34.9625 13.7701 34.9695 13.7358 35.1148 13.6326C35.2393 13.5433 35.4954 13.5227 36.4711 13.5227C37.6544 13.5227 37.6683 13.5227 37.8413 13.6945ZM16.0363 18.7539C16.2508 18.9257 16.2439 19.0632 16.0017 19.7506C15.8702 20.1081 15.8633 20.2112 15.9255 20.4518C15.974 20.6099 16.0916 20.8299 16.1885 20.9536C16.3892 21.1873 16.9774 21.4966 17.2196 21.4966C17.614 21.4966 17.7386 22.1978 17.3787 22.3697C16.9705 22.569 15.7733 21.9778 15.3512 21.3729C15.1297 21.0498 14.9637 20.548 14.9637 20.1837C14.9637 19.7781 15.2266 19.022 15.4481 18.802C15.6833 18.5683 15.7871 18.5614 16.0363 18.7539ZM40.7062 31.8216C40.4847 33.1277 39.4536 34.2619 38.1804 34.5918C37.6752 34.7224 36.8448 34.7224 36.3742 34.5987C35.6546 34.4062 34.6235 33.8494 35.2463 33.9938C35.3777 34.0213 35.9175 34.0419 36.4504 34.0419C37.2046 34.0419 37.5022 34.0144 37.7998 33.9113C39.2599 33.4301 40.2356 32.3509 40.6785 30.7423C40.7754 30.3918 40.7961 31.2785 40.7062 31.8216ZM21.3578 32.7083C21.5723 32.8733 21.6 33.1758 21.42 33.3339C21.3508 33.3957 21.1156 33.5264 20.8941 33.6363C20.0914 34.0213 19.6762 34.6125 19.6139 35.458C19.5724 36.0423 19.7246 36.5716 20.0499 36.9428C20.2921 37.2246 20.728 37.5202 21.0533 37.6165C21.4962 37.7471 21.5861 38.0633 21.2678 38.3657C21.0671 38.5582 21.0602 38.5582 20.7211 38.462C20.3059 38.3382 19.6831 37.9395 19.3856 37.5958C19.0119 37.1696 18.7627 36.5578 18.7212 35.9323C18.6243 34.5231 19.2195 33.4507 20.4512 32.8389C20.7557 32.6877 21.0394 32.564 21.0879 32.564C21.1363 32.564 21.254 32.6258 21.3578 32.7083Z" stroke="white" stroke-width="4" mask="url(#path-1-outside-1_4259_255)"/>
</svg>
